<svg width="364" height="148" viewBox="0 0 364 148" fill="none" xmlns="http://www.w3.org/2000/svg">
<mask id="path-1-outside-1_1_3" maskUnits="userSpaceOnUse" x="111" y="17" width="127" height="55" fill="black">
<rect fill="white" x="111" y="17" width="127" height="55"/>
<path d="M122.648 68.664C119.789 68.664 117.763 67.8533 116.568 66.232C115.416 64.568 114.84 62.072 114.84 58.744C114.84 56.6107 115.181 53.4107 115.864 49.144C116.589 44.8347 117.592 39.1387 118.872 32.056L115.48 25.208C117.485 23.928 119.619 22.84 121.88 21.944C124.141 21.0053 126.403 20.536 128.664 20.536C130.115 20.536 131.181 20.8773 131.864 21.56C132.589 22.2427 133.08 23.096 133.336 24.12C134.829 24.0773 136.579 23.9067 138.584 23.608C140.589 23.3093 142.701 22.9253 144.92 22.456C147.139 21.9867 149.293 21.4533 151.384 20.856C151.597 21.6667 151.725 22.4133 151.768 23.096C151.853 23.7787 151.896 24.4187 151.896 25.016C151.896 27.448 151.341 29.432 150.232 30.968C149.123 32.504 147.629 33.6347 145.752 34.36C143.917 35.0853 141.891 35.448 139.672 35.448C137.283 35.448 134.893 34.936 132.504 33.912C132.248 35.3627 131.971 36.8987 131.672 38.52C131.373 40.0987 131.053 41.6987 130.712 43.32C131.395 43.448 132.056 43.5547 132.696 43.64C133.379 43.7253 134.061 43.768 134.744 43.768C135.597 43.5973 136.557 43.384 137.624 43.128C138.733 42.8293 139.693 42.552 140.504 42.296C140.675 42.8507 140.76 43.4267 140.76 44.024C140.803 44.5787 140.824 45.0267 140.824 45.368C140.824 47.416 140.12 48.9093 138.712 49.848C137.347 50.7867 135.725 51.256 133.848 51.256C133.037 51.256 132.269 51.2133 131.544 51.128C130.819 51 130.093 50.8507 129.368 50.68C129.155 51.96 128.984 53.176 128.856 54.328C128.728 55.48 128.664 56.8027 128.664 58.296H139.032C142.275 57.8267 145.539 56.9947 148.824 55.8C148.995 56.2693 149.101 56.76 149.144 57.272C149.187 57.784 149.208 58.3387 149.208 58.936C149.208 60.4293 148.909 61.9227 148.312 63.416C147.715 64.9093 146.797 66.1467 145.56 67.128C144.323 68.1093 142.765 68.6 140.888 68.6C139.907 68.6 138.904 68.5147 137.88 68.344C136.856 68.1733 135.789 67.9813 134.68 67.768C133.869 67.5973 132.995 67.4267 132.056 67.256C131.16 67.0853 130.157 66.936 129.048 66.808C127 68.0453 124.867 68.664 122.648 68.664ZM171.617 68.6C167.905 68.6 164.684 67.896 161.953 66.488C159.265 65.0373 157.174 63.0533 155.681 60.536C154.23 58.0187 153.505 55.096 153.505 51.768C153.505 48.312 154.124 45.176 155.361 42.36C156.598 39.5013 158.348 37.048 160.609 35C162.87 32.952 165.494 31.3733 168.481 30.264C171.51 29.1547 174.774 28.6 178.273 28.6C182.07 28.6 184.993 29.3253 187.041 30.776C189.132 32.184 190.177 33.9547 190.177 36.088C190.177 38.136 189.43 39.6933 187.937 40.76C186.486 41.8267 184.822 42.36 182.945 42.36C181.665 42.36 180.321 41.9333 178.913 41.08C177.505 40.2267 176.374 38.904 175.521 37.112C173.644 37.88 172.044 39.0747 170.721 40.696C169.441 42.2747 168.46 44.0453 167.777 46.008C167.137 47.928 166.817 49.8267 166.817 51.704C166.817 54.2213 167.35 56.3973 168.417 58.232C169.484 60.024 171.062 60.92 173.153 60.92C174.604 60.92 175.926 60.3653 177.121 59.256C178.316 58.104 178.913 56.2907 178.913 53.816C181.814 53.816 184.097 54.136 185.761 54.776C187.425 55.416 188.257 56.568 188.257 58.232C188.257 59.768 187.574 61.3467 186.209 62.968C184.844 64.5467 182.924 65.8907 180.449 67C177.974 68.0667 175.03 68.6 171.617 68.6ZM212.43 68.6C208.675 68.6 205.432 67.896 202.702 66.488C200.014 65.0373 197.944 63.0533 196.494 60.536C195.043 58.0187 194.318 55.096 194.318 51.768C194.318 47.16 195.32 43.128 197.326 39.672C199.374 36.1733 202.168 33.464 205.71 31.544C209.251 29.5813 213.283 28.6 217.806 28.6C218.531 28.6 219.256 28.6427 219.982 28.728C220.75 28.7707 221.56 28.8987 222.414 29.112C222.627 29.7093 222.798 30.4347 222.926 31.288C223.054 32.0987 223.139 32.9733 223.182 33.912C223.566 33.784 223.971 33.6773 224.398 33.592C224.867 33.5067 225.358 33.464 225.87 33.464C227.363 33.464 228.771 33.8693 230.094 34.68C231.416 35.448 232.504 36.664 233.358 38.328C234.211 39.992 234.638 42.104 234.638 44.664C234.638 48.4613 233.998 51.8533 232.718 54.84C231.48 57.784 229.795 60.28 227.662 62.328C225.528 64.376 223.139 65.9333 220.494 67C217.891 68.0667 215.203 68.6 212.43 68.6ZM214.414 60.728C215.395 60.728 216.419 60.4933 217.486 60.024C218.552 59.5547 219.598 58.7013 220.622 57.464C221.646 56.2267 222.499 54.4773 223.182 52.216C221.347 51.064 220.024 49.656 219.214 47.992C218.403 46.2853 217.998 44.408 217.998 42.36C217.998 41.7627 218.104 40.9947 218.318 40.056C218.531 39.1173 218.894 38.1573 219.406 37.176C219.96 36.1947 220.707 35.384 221.646 34.744C218.702 35.3413 216.291 36.2373 214.414 37.432C212.536 38.6267 211.064 40.0133 209.998 41.592C208.974 43.128 208.248 44.728 207.822 46.392C207.438 48.0133 207.246 49.5707 207.246 51.064C207.246 52.7707 207.523 54.3707 208.078 55.864C208.632 57.3147 209.443 58.488 210.51 59.384C211.576 60.28 212.878 60.728 214.414 60.728Z"/>
</mask>
<path d="M122.648 68.664C119.789 68.664 117.763 67.8533 116.568 66.232C115.416 64.568 114.84 62.072 114.84 58.744C114.84 56.6107 115.181 53.4107 115.864 49.144C116.589 44.8347 117.592 39.1387 118.872 32.056L115.48 25.208C117.485 23.928 119.619 22.84 121.88 21.944C124.141 21.0053 126.403 20.536 128.664 20.536C130.115 20.536 131.181 20.8773 131.864 21.56C132.589 22.2427 133.08 23.096 133.336 24.12C134.829 24.0773 136.579 23.9067 138.584 23.608C140.589 23.3093 142.701 22.9253 144.92 22.456C147.139 21.9867 149.293 21.4533 151.384 20.856C151.597 21.6667 151.725 22.4133 151.768 23.096C151.853 23.7787 151.896 24.4187 151.896 25.016C151.896 27.448 151.341 29.432 150.232 30.968C149.123 32.504 147.629 33.6347 145.752 34.36C143.917 35.0853 141.891 35.448 139.672 35.448C137.283 35.448 134.893 34.936 132.504 33.912C132.248 35.3627 131.971 36.8987 131.672 38.52C131.373 40.0987 131.053 41.6987 130.712 43.32C131.395 43.448 132.056 43.5547 132.696 43.64C133.379 43.7253 134.061 43.768 134.744 43.768C135.597 43.5973 136.557 43.384 137.624 43.128C138.733 42.8293 139.693 42.552 140.504 42.296C140.675 42.8507 140.76 43.4267 140.76 44.024C140.803 44.5787 140.824 45.0267 140.824 45.368C140.824 47.416 140.12 48.9093 138.712 49.848C137.347 50.7867 135.725 51.256 133.848 51.256C133.037 51.256 132.269 51.2133 131.544 51.128C130.819 51 130.093 50.8507 129.368 50.68C129.155 51.96 128.984 53.176 128.856 54.328C128.728 55.48 128.664 56.8027 128.664 58.296H139.032C142.275 57.8267 145.539 56.9947 148.824 55.8C148.995 56.2693 149.101 56.76 149.144 57.272C149.187 57.784 149.208 58.3387 149.208 58.936C149.208 60.4293 148.909 61.9227 148.312 63.416C147.715 64.9093 146.797 66.1467 145.56 67.128C144.323 68.1093 142.765 68.6 140.888 68.6C139.907 68.6 138.904 68.5147 137.88 68.344C136.856 68.1733 135.789 67.9813 134.68 67.768C133.869 67.5973 132.995 67.4267 132.056 67.256C131.16 67.0853 130.157 66.936 129.048 66.808C127 68.0453 124.867 68.664 122.648 68.664ZM171.617 68.6C167.905 68.6 164.684 67.896 161.953 66.488C159.265 65.0373 157.174 63.0533 155.681 60.536C154.23 58.0187 153.505 55.096 153.505 51.768C153.505 48.312 154.124 45.176 155.361 42.36C156.598 39.5013 158.348 37.048 160.609 35C162.87 32.952 165.494 31.3733 168.481 30.264C171.51 29.1547 174.774 28.6 178.273 28.6C182.07 28.6 184.993 29.3253 187.041 30.776C189.132 32.184 190.177 33.9547 190.177 36.088C190.177 38.136 189.43 39.6933 187.937 40.76C186.486 41.8267 184.822 42.36 182.945 42.36C181.665 42.36 180.321 41.9333 178.913 41.08C177.505 40.2267 176.374 38.904 175.521 37.112C173.644 37.88 172.044 39.0747 170.721 40.696C169.441 42.2747 168.46 44.0453 167.777 46.008C167.137 47.928 166.817 49.8267 166.817 51.704C166.817 54.2213 167.35 56.3973 168.417 58.232C169.484 60.024 171.062 60.92 173.153 60.92C174.604 60.92 175.926 60.3653 177.121 59.256C178.316 58.104 178.913 56.2907 178.913 53.816C181.814 53.816 184.097 54.136 185.761 54.776C187.425 55.416 188.257 56.568 188.257 58.232C188.257 59.768 187.574 61.3467 186.209 62.968C184.844 64.5467 182.924 65.8907 180.449 67C177.974 68.0667 175.03 68.6 171.617 68.6ZM212.43 68.6C208.675 68.6 205.432 67.896 202.702 66.488C200.014 65.0373 197.944 63.0533 196.494 60.536C195.043 58.0187 194.318 55.096 194.318 51.768C194.318 47.16 195.32 43.128 197.326 39.672C199.374 36.1733 202.168 33.464 205.71 31.544C209.251 29.5813 213.283 28.6 217.806 28.6C218.531 28.6 219.256 28.6427 219.982 28.728C220.75 28.7707 221.56 28.8987 222.414 29.112C222.627 29.7093 222.798 30.4347 222.926 31.288C223.054 32.0987 223.139 32.9733 223.182 33.912C223.566 33.784 223.971 33.6773 224.398 33.592C224.867 33.5067 225.358 33.464 225.87 33.464C227.363 33.464 228.771 33.8693 230.094 34.68C231.416 35.448 232.504 36.664 233.358 38.328C234.211 39.992 234.638 42.104 234.638 44.664C234.638 48.4613 233.998 51.8533 232.718 54.84C231.48 57.784 229.795 60.28 227.662 62.328C225.528 64.376 223.139 65.9333 220.494 67C217.891 68.0667 215.203 68.6 212.43 68.6ZM214.414 60.728C215.395 60.728 216.419 60.4933 217.486 60.024C218.552 59.5547 219.598 58.7013 220.622 57.464C221.646 56.2267 222.499 54.4773 223.182 52.216C221.347 51.064 220.024 49.656 219.214 47.992C218.403 46.2853 217.998 44.408 217.998 42.36C217.998 41.7627 218.104 40.9947 218.318 40.056C218.531 39.1173 218.894 38.1573 219.406 37.176C219.96 36.1947 220.707 35.384 221.646 34.744C218.702 35.3413 216.291 36.2373 214.414 37.432C212.536 38.6267 211.064 40.0133 209.998 41.592C208.974 43.128 208.248 44.728 207.822 46.392C207.438 48.0133 207.246 49.5707 207.246 51.064C207.246 52.7707 207.523 54.3707 208.078 55.864C208.632 57.3147 209.443 58.488 210.51 59.384C211.576 60.28 212.878 60.728 214.414 60.728Z" fill="#38971F"/>
<path d="M116.568 66.232L114.101 67.9396L114.127 67.976L114.153 68.0116L116.568 66.232ZM115.864 49.144L112.906 48.6461L112.904 48.658L112.902 48.67L115.864 49.144ZM118.872 32.056L121.824 32.5895L122.001 31.6133L121.56 30.7244L118.872 32.056ZM115.48 25.208L113.866 22.6792L111.597 24.1275L112.792 26.5396L115.48 25.208ZM121.88 21.944L122.985 24.733L123.008 24.7241L123.03 24.7148L121.88 21.944ZM131.864 21.56L129.743 23.6813L129.775 23.7135L129.808 23.7446L131.864 21.56ZM133.336 24.12L130.426 24.8476L131.011 27.1877L133.422 27.1188L133.336 24.12ZM138.584 23.608L139.026 26.5753H139.026L138.584 23.608ZM144.92 22.456L145.541 25.391H145.541L144.92 22.456ZM151.384 20.856L154.285 20.0925L153.506 17.1298L150.56 17.9714L151.384 20.856ZM151.768 23.096L148.774 23.2831L148.78 23.3759L148.791 23.4681L151.768 23.096ZM145.752 34.36L144.671 31.5616L144.66 31.5658L144.649 31.5701L145.752 34.36ZM132.504 33.912L133.686 31.1546L130.207 29.6638L129.55 33.3906L132.504 33.912ZM131.672 38.52L134.62 39.0777L134.621 39.0706L134.622 39.0635L131.672 38.52ZM130.712 43.32L127.776 42.702L127.144 45.7034L130.159 46.2686L130.712 43.32ZM132.696 43.64L132.3 46.6137L132.312 46.6153L132.324 46.6168L132.696 43.64ZM134.744 43.768V46.768H135.041L135.332 46.7097L134.744 43.768ZM137.624 43.128L138.324 46.0452L138.364 46.0355L138.404 46.0248L137.624 43.128ZM140.504 42.296L143.371 41.4137L142.483 38.5252L139.601 39.4352L140.504 42.296ZM140.76 44.024H137.76V44.1392L137.769 44.2541L140.76 44.024ZM138.712 49.848L137.048 47.3518L137.03 47.3637L137.012 47.3759L138.712 49.848ZM131.544 51.128L131.023 54.0823L131.108 54.0974L131.193 54.1075L131.544 51.128ZM129.368 50.68L130.055 47.7597L126.936 47.0258L126.409 50.1868L129.368 50.68ZM128.856 54.328L125.874 53.9967L128.856 54.328ZM128.664 58.296H125.664V61.296H128.664V58.296ZM139.032 58.296V61.296H139.248L139.462 61.2651L139.032 58.296ZM148.824 55.8L151.643 54.7748L150.618 51.9554L147.799 52.9806L148.824 55.8ZM149.144 57.272L152.134 57.0229L149.144 57.272ZM148.312 63.416L151.097 64.5302L148.312 63.416ZM145.56 67.128L147.424 69.4785L145.56 67.128ZM137.88 68.344L137.387 71.3032L137.88 68.344ZM134.68 67.768L134.062 70.7037L134.088 70.7091L134.113 70.714L134.68 67.768ZM132.056 67.256L131.495 70.203L131.507 70.2054L131.519 70.2076L132.056 67.256ZM129.048 66.808L129.392 63.8278L128.374 63.7103L127.497 64.2403L129.048 66.808ZM122.648 65.664C120.318 65.664 119.4 65.0187 118.983 64.4524L114.153 68.0116C116.125 70.688 119.261 71.664 122.648 71.664V65.664ZM119.035 64.5244C118.389 63.5918 117.84 61.8186 117.84 58.744H111.84C111.84 62.3254 112.443 65.5442 114.101 67.9396L119.035 64.5244ZM117.84 58.744C117.84 56.8592 118.149 53.8527 118.826 49.618L112.902 48.67C112.214 52.9686 111.84 56.3622 111.84 58.744H117.84ZM118.822 49.6419C119.545 45.3496 120.545 39.6668 121.824 32.5895L115.92 31.5225C114.639 38.6105 113.634 44.3198 112.906 48.6461L118.822 49.6419ZM121.56 30.7244L118.168 23.8764L112.792 26.5396L116.184 33.3876L121.56 30.7244ZM117.094 27.7368C118.935 26.5618 120.897 25.5603 122.985 24.733L120.775 19.155C118.34 20.1197 116.036 21.2942 113.866 22.6792L117.094 27.7368ZM123.03 24.7148C124.957 23.9148 126.829 23.536 128.664 23.536V17.536C125.976 17.536 123.325 18.0959 120.73 19.1732L123.03 24.7148ZM128.664 23.536C129.714 23.536 129.851 23.7896 129.743 23.6813L133.985 19.4387C132.512 17.965 130.515 17.536 128.664 17.536V23.536ZM129.808 23.7446C130.089 24.0095 130.3 24.3462 130.426 24.8476L136.246 23.3924C135.86 21.8458 135.089 20.4758 133.92 19.3754L129.808 23.7446ZM133.422 27.1188C135.068 27.0717 136.941 26.8858 139.026 26.5753L138.142 20.6407C136.216 20.9276 134.591 21.0829 133.25 21.1212L133.422 27.1188ZM139.026 26.5753C141.098 26.2667 143.27 25.8715 145.541 25.391L144.299 19.5209C142.133 19.9792 140.081 20.352 138.142 20.6407L139.026 26.5753ZM145.541 25.391C147.825 24.9079 150.048 24.3579 152.208 23.7406L150.56 17.9714C148.539 18.5488 146.452 19.0655 144.299 19.5209L145.541 25.391ZM148.483 21.6195C148.657 22.282 148.746 22.8329 148.774 23.2831L154.762 22.9089C154.705 21.9938 154.538 21.0514 154.285 20.0925L148.483 21.6195ZM148.791 23.4681C148.863 24.0454 148.896 24.56 148.896 25.016H154.896C154.896 24.2773 154.843 23.5119 154.745 22.7239L148.791 23.4681ZM148.896 25.016C148.896 26.9965 148.447 28.315 147.8 29.2115L152.664 32.7245C154.235 30.549 154.896 27.8995 154.896 25.016H148.896ZM147.8 29.2115C147.052 30.247 146.042 31.0319 144.671 31.5616L146.833 37.1584C149.217 36.2375 151.193 34.761 152.664 32.7245L147.8 29.2115ZM144.649 31.5701C143.207 32.1404 141.56 32.448 139.672 32.448V38.448C142.221 38.448 144.628 38.0303 146.855 37.1499L144.649 31.5701ZM139.672 32.448C137.724 32.448 135.735 32.0327 133.686 31.1546L131.322 36.6694C134.052 37.8393 136.842 38.448 139.672 38.448V32.448ZM129.55 33.3906C129.295 34.8331 129.019 36.3617 128.722 37.9765L134.622 39.0635C134.922 37.4356 135.201 35.8922 135.458 34.4334L129.55 33.3906ZM128.724 37.9623C128.43 39.5202 128.114 41.1001 127.776 42.702L133.648 43.938C133.993 42.2972 134.317 40.6771 134.62 39.0777L128.724 37.9623ZM130.159 46.2686C130.89 46.4056 131.603 46.5209 132.3 46.6137L133.092 40.6663C132.509 40.5885 131.899 40.4904 131.265 40.3714L130.159 46.2686ZM132.324 46.6168C133.129 46.7175 133.936 46.768 134.744 46.768V40.768C134.187 40.768 133.628 40.7332 133.068 40.6632L132.324 46.6168ZM135.332 46.7097C136.231 46.53 137.229 46.3079 138.324 46.0452L136.924 40.2108C135.885 40.4601 134.963 40.6647 134.156 40.8263L135.332 46.7097ZM138.404 46.0248C139.541 45.7186 140.545 45.4292 141.407 45.1567L139.601 39.4352C138.842 39.6748 137.925 39.9401 136.844 40.2312L138.404 46.0248ZM137.637 43.1783C137.717 43.4388 137.76 43.7169 137.76 44.024H143.76C143.76 43.1365 143.633 42.2626 143.371 41.4137L137.637 43.1783ZM137.769 44.2541C137.809 44.7733 137.824 45.1359 137.824 45.368H143.824C143.824 44.9175 143.797 44.384 143.751 43.7939L137.769 44.2541ZM137.824 45.368C137.824 46.6546 137.438 47.0915 137.048 47.3518L140.376 52.3442C142.802 50.7272 143.824 48.1774 143.824 45.368H137.824ZM137.012 47.3759C136.212 47.9262 135.202 48.256 133.848 48.256V54.256C136.249 54.256 138.481 53.6471 140.412 52.3201L137.012 47.3759ZM133.848 48.256C133.142 48.256 132.492 48.2188 131.895 48.1485L131.193 54.1075C132.047 54.2079 132.933 54.256 133.848 54.256V48.256ZM132.065 48.1736C131.396 48.0556 130.726 47.9176 130.055 47.7597L128.681 53.6003C129.46 53.7837 130.241 53.9444 131.023 54.0823L132.065 48.1736ZM126.409 50.1868C126.188 51.5143 126.009 52.7846 125.874 53.9967L131.838 54.6593C131.959 53.5674 132.122 52.4057 132.327 51.1732L126.409 50.1868ZM125.874 53.9967C125.731 55.2848 125.664 56.7217 125.664 58.296H131.664C131.664 56.8836 131.725 55.6752 131.838 54.6593L125.874 53.9967ZM128.664 61.296H139.032V55.296H128.664V61.296ZM139.462 61.2651C142.921 60.7644 146.384 59.8795 149.849 58.6194L147.799 52.9806C144.694 54.1098 141.629 54.8889 138.602 55.3269L139.462 61.2651ZM146.005 56.8252C146.082 57.0374 146.133 57.2666 146.154 57.5211L152.134 57.0229C152.07 56.2534 151.908 55.5012 151.643 54.7748L146.005 56.8252ZM146.154 57.5211C146.189 57.9383 146.208 58.4088 146.208 58.936H152.208C152.208 58.2685 152.184 57.6297 152.134 57.0229L146.154 57.5211ZM146.208 58.936C146.208 60.0191 145.993 61.1353 145.527 62.3018L151.097 64.5302C151.826 62.71 152.208 60.8395 152.208 58.936H146.208ZM145.527 62.3018C145.12 63.3192 144.516 64.1272 143.696 64.7775L147.424 69.4785C149.079 68.1661 150.31 66.4995 151.097 64.5302L145.527 62.3018ZM143.696 64.7775C143.084 65.2626 142.221 65.6 140.888 65.6V71.6C143.31 71.6 145.561 70.9561 147.424 69.4785L143.696 64.7775ZM140.888 65.6C140.081 65.6 139.244 65.5299 138.373 65.3848L137.387 71.3032C138.564 71.4995 139.732 71.6 140.888 71.6V65.6ZM138.373 65.3848C137.376 65.2186 136.334 65.031 135.247 64.822L134.113 70.714C135.245 70.9316 136.336 71.1281 137.387 71.3032L138.373 65.3848ZM135.298 64.8324C134.457 64.6552 133.555 64.4793 132.593 64.3044L131.519 70.2076C132.435 70.3741 133.282 70.5395 134.062 70.7037L135.298 64.8324ZM132.617 64.309C131.635 64.122 130.559 63.9624 129.392 63.8278L128.704 69.7882C129.756 69.9096 130.685 70.0487 131.495 70.203L132.617 64.309ZM127.497 64.2403C125.879 65.2178 124.277 65.664 122.648 65.664V71.664C125.456 71.664 128.121 70.8728 130.599 69.3757L127.497 64.2403ZM161.953 66.488L160.528 69.1281L160.553 69.1415L160.578 69.1544L161.953 66.488ZM155.681 60.536L153.082 62.0339L153.091 62.0503L153.101 62.0666L155.681 60.536ZM155.361 42.36L158.108 43.5668L158.111 43.5593L158.114 43.5517L155.361 42.36ZM160.609 35L162.623 37.2236H162.623L160.609 35ZM168.481 30.264L167.449 27.4469L167.436 27.4517L168.481 30.264ZM187.041 30.776L185.307 33.2241L185.336 33.2445L185.365 33.2643L187.041 30.776ZM187.937 40.76L186.193 38.3188L186.176 38.3308L186.16 38.343L187.937 40.76ZM178.913 41.08L180.468 38.5144H180.468L178.913 41.08ZM175.521 37.112L178.23 35.8222L177.01 33.2615L174.385 34.3354L175.521 37.112ZM170.721 40.696L168.396 38.7996L168.391 38.8066L170.721 40.696ZM167.777 46.008L164.944 45.0224L164.937 45.0408L164.931 45.0593L167.777 46.008ZM168.417 58.232L165.823 59.7399L165.831 59.7532L165.839 59.7664L168.417 58.232ZM177.121 59.256L179.162 61.4544L179.183 61.4352L179.203 61.4155L177.121 59.256ZM178.913 53.816V50.816H175.913V53.816H178.913ZM186.209 62.968L188.478 64.9305L188.491 64.9155L188.504 64.9004L186.209 62.968ZM180.449 67L181.636 69.755L181.656 69.7464L181.676 69.7375L180.449 67ZM171.617 65.6C168.285 65.6 165.554 64.9693 163.328 63.8216L160.578 69.1544C163.814 70.8227 167.525 71.6 171.617 71.6V65.6ZM163.378 63.8479C161.147 62.6438 159.465 61.0342 158.261 59.0054L153.101 62.0666C154.884 65.0725 157.383 67.4309 160.528 69.1281L163.378 63.8479ZM158.28 59.0381C157.128 57.0392 156.505 54.6478 156.505 51.768H150.505C150.505 55.5442 151.332 58.9982 153.082 62.0339L158.28 59.0381ZM156.505 51.768C156.505 48.6761 157.057 45.958 158.108 43.5668L152.614 41.1532C151.19 44.394 150.505 47.9479 150.505 51.768H156.505ZM158.114 43.5517C159.185 41.0773 160.686 38.9782 162.623 37.2236L158.595 32.7764C156.01 35.1178 154.012 37.9254 152.608 41.1683L158.114 43.5517ZM162.623 37.2236C164.589 35.443 166.88 34.0588 169.526 33.0763L167.436 27.4517C164.108 28.6879 161.152 30.461 158.595 32.7764L162.623 37.2236ZM169.513 33.0811C172.185 32.1026 175.096 31.6 178.273 31.6V25.6C174.452 25.6 170.836 26.2068 167.449 27.4469L169.513 33.0811ZM178.273 31.6C181.749 31.6 183.965 32.2738 185.307 33.2241L188.775 28.3279C186.021 26.3769 182.392 25.6 178.273 25.6V31.6ZM185.365 33.2643C186.801 34.2314 187.177 35.1448 187.177 36.088H193.177C193.177 32.7645 191.462 30.1366 188.717 28.2877L185.365 33.2643ZM187.177 36.088C187.177 37.2975 186.798 37.887 186.193 38.3188L189.681 43.2012C192.063 41.4997 193.177 38.9745 193.177 36.088H187.177ZM186.16 38.343C185.247 39.0141 184.212 39.36 182.945 39.36V45.36C185.433 45.36 187.725 44.6393 189.714 43.177L186.16 38.343ZM182.945 39.36C182.349 39.36 181.539 39.1635 180.468 38.5144L177.358 43.6456C179.103 44.7031 180.981 45.36 182.945 45.36V39.36ZM180.468 38.5144C179.656 38.0221 178.883 37.1954 178.23 35.8222L172.812 38.4018C173.865 40.6126 175.354 42.4312 177.358 43.6456L180.468 38.5144ZM174.385 34.3354C172.029 35.2991 170.025 36.803 168.396 38.7996L173.046 42.5924C174.062 41.3463 175.258 40.4609 176.657 39.8886L174.385 34.3354ZM168.391 38.8066C166.887 40.6612 165.738 42.7391 164.944 45.0224L170.61 46.9936C171.182 45.3516 171.995 43.8881 173.051 42.5854L168.391 38.8066ZM164.931 45.0593C164.197 47.2613 163.817 49.48 163.817 51.704H169.817C169.817 50.1733 170.077 48.5947 170.623 46.9567L164.931 45.0593ZM163.817 51.704C163.817 54.6519 164.445 57.3686 165.823 59.7399L171.011 56.7241C170.256 55.4261 169.817 53.7908 169.817 51.704H163.817ZM165.839 59.7664C167.448 62.47 170.008 63.92 173.153 63.92V57.92C172.117 57.92 171.519 57.578 170.995 56.6975L165.839 59.7664ZM173.153 63.92C175.456 63.92 177.487 63.0101 179.162 61.4544L175.08 57.0576C174.366 57.7206 173.751 57.92 173.153 57.92V63.92ZM179.203 61.4155C181.22 59.4711 181.913 56.7067 181.913 53.816H175.913C175.913 55.8746 175.411 56.7369 175.039 57.0965L179.203 61.4155ZM178.913 56.816C181.648 56.816 183.512 57.1252 184.684 57.576L186.838 51.976C184.682 51.1468 181.981 50.816 178.913 50.816V56.816ZM184.684 57.576C184.899 57.6585 185.029 57.7358 185.103 57.789C185.174 57.8397 185.197 57.871 185.201 57.8765C185.204 57.8806 185.213 57.8922 185.224 57.93C185.236 57.9721 185.257 58.0661 185.257 58.232H191.257C191.257 56.8806 190.91 55.5341 190.065 54.3635C189.231 53.2084 188.075 52.4518 186.838 51.976L184.684 57.576ZM185.257 58.232C185.257 58.8329 184.996 59.7506 183.914 61.0356L188.504 64.9004C190.152 62.9428 191.257 60.7031 191.257 58.232H185.257ZM183.94 61.0055C182.933 62.1693 181.412 63.2808 179.222 64.2625L181.676 69.7375C184.436 68.5005 186.754 66.924 188.478 64.9305L183.94 61.0055ZM179.262 64.245C177.248 65.1131 174.727 65.6 171.617 65.6V71.6C175.334 71.6 178.701 71.0202 181.636 69.755L179.262 64.245ZM202.701 66.488L201.277 69.1281L201.302 69.1415L201.327 69.1544L202.701 66.488ZM196.493 60.536L193.894 62.0339L196.493 60.536ZM197.326 39.672L194.736 38.1565L194.731 38.1664L197.326 39.672ZM205.71 31.544L207.139 34.1813L207.152 34.1747L207.164 34.168L205.71 31.544ZM219.981 28.728L219.631 31.7074L219.723 31.7183L219.815 31.7234L219.981 28.728ZM222.413 29.112L225.239 28.103L224.699 26.591L223.141 26.2016L222.413 29.112ZM222.925 31.288L219.959 31.733L219.96 31.7445L219.962 31.7559L222.925 31.288ZM223.182 33.912L220.185 34.0482L220.365 38.0132L224.13 36.758L223.182 33.912ZM224.398 33.592L223.861 30.6404L223.835 30.6451L223.809 30.6503L224.398 33.592ZM230.094 34.68L228.526 37.2378L228.556 37.2565L228.587 37.2744L230.094 34.68ZM232.717 54.84L229.96 53.6582L229.956 53.6679L229.952 53.6776L232.717 54.84ZM227.661 62.328L225.584 60.1638L227.661 62.328ZM220.493 67L219.372 64.2177L219.364 64.2209L219.356 64.2241L220.493 67ZM217.486 60.024L216.277 57.2781L217.486 60.024ZM220.622 57.464L222.933 59.3767V59.3767L220.622 57.464ZM223.182 52.216L226.053 53.083L226.715 50.8922L224.777 49.6753L223.182 52.216ZM219.214 47.992L216.504 49.2792L216.51 49.2926L216.517 49.3059L219.214 47.992ZM218.318 40.056L215.392 39.3911L218.318 40.056ZM219.406 37.176L216.794 35.6998L216.769 35.7437L216.746 35.7883L219.406 37.176ZM221.646 34.744L223.336 37.2227L221.049 31.8039L221.646 34.744ZM209.997 41.592L207.512 39.9124L207.507 39.9201L207.501 39.9279L209.997 41.592ZM207.822 46.392L204.916 45.6469L204.909 45.6737L204.902 45.7006L207.822 46.392ZM208.077 55.864L205.265 56.9086L205.27 56.922L205.275 56.9354L208.077 55.864ZM212.43 65.6C209.048 65.6 206.298 64.9669 204.076 63.8216L201.327 69.1544C204.567 70.8251 208.301 71.6 212.43 71.6V65.6ZM204.126 63.8479C201.902 62.6475 200.251 61.0479 199.093 59.0381L193.894 62.0339C195.637 65.0588 198.125 67.4272 201.277 69.1281L204.126 63.8479ZM199.093 59.0381C197.941 57.0392 197.317 54.6478 197.317 51.768H191.317C191.317 55.5442 192.145 58.9982 193.894 62.0339L199.093 59.0381ZM197.317 51.768C197.317 47.6067 198.219 44.1101 199.92 41.1776L194.731 38.1664C192.422 42.1459 191.317 46.7133 191.317 51.768H197.317ZM199.915 41.1875C201.688 38.1584 204.083 35.8385 207.139 34.1813L204.28 28.9067C200.254 31.0895 197.059 34.1882 194.736 38.1565L199.915 41.1875ZM207.164 34.168C210.21 32.4798 213.731 31.6 217.806 31.6V25.6C212.835 25.6 208.292 26.6829 204.255 28.92L207.164 34.168ZM217.806 31.6C218.413 31.6 219.021 31.6357 219.631 31.7074L220.332 25.7485C219.491 25.6496 218.649 25.6 217.806 25.6V31.6ZM219.815 31.7234C220.369 31.7542 220.991 31.8487 221.686 32.0224L223.141 26.2016C222.129 25.9487 221.13 25.7872 220.148 25.7326L219.815 31.7234ZM219.588 30.121C219.718 30.4834 219.85 31.0082 219.959 31.733L225.892 30.843C225.745 29.8611 225.536 28.9353 225.239 28.103L219.588 30.121ZM219.962 31.7559C220.071 32.4423 220.146 33.2051 220.185 34.0482L226.178 33.7758C226.131 32.7416 226.036 31.755 225.889 30.8201L219.962 31.7559ZM224.13 36.758C224.388 36.6722 224.672 36.5965 224.986 36.5337L223.809 30.6503C223.27 30.7582 222.743 30.8958 222.233 31.066L224.13 36.758ZM224.934 36.5436C225.214 36.4927 225.524 36.464 225.87 36.464V30.464C225.191 30.464 224.52 30.5206 223.861 30.6404L224.934 36.5436ZM225.87 36.464C226.787 36.464 227.656 36.7045 228.526 37.2378L231.661 32.1222C229.886 31.0342 227.938 30.464 225.87 30.464V36.464ZM228.587 37.2744C229.312 37.6953 230.038 38.4299 230.688 39.6969L236.027 36.959C234.97 34.8981 233.52 33.2007 231.6 32.0856L228.587 37.2744ZM230.688 39.6969C231.259 40.8104 231.637 42.4134 231.637 44.664H237.637C237.637 41.7946 237.163 39.1736 236.027 36.959L230.688 39.6969ZM231.637 44.664C231.637 48.1227 231.055 51.1026 229.96 53.6582L235.475 56.0218C236.94 52.6041 237.637 48.7999 237.637 44.664H231.637ZM229.952 53.6776C228.86 56.2747 227.399 58.4214 225.584 60.1638L229.739 64.4922C232.191 62.1386 234.1 59.2933 235.483 56.0024L229.952 53.6776ZM225.584 60.1638C223.716 61.9566 221.649 63.2995 219.372 64.2177L221.615 69.7823C224.629 68.5672 227.34 66.7954 229.739 64.4922L225.584 60.1638ZM219.356 64.2241C217.109 65.1449 214.807 65.6 212.43 65.6V71.6C215.599 71.6 218.673 70.9884 221.631 69.7759L219.356 64.2241ZM214.413 63.728C215.881 63.728 217.317 63.3759 218.694 62.7699L216.277 57.2781C215.521 57.6108 214.908 57.728 214.413 57.728V63.728ZM218.694 62.7699C220.318 62.0552 221.717 60.8452 222.933 59.3767L218.31 55.5513C217.478 56.5574 216.786 57.0542 216.277 57.2781L218.694 62.7699ZM222.933 59.3767C224.302 57.7224 225.305 55.5624 226.053 53.083L220.31 51.349C219.693 53.3922 218.989 54.731 218.31 55.5513L222.933 59.3767ZM224.777 49.6753C223.335 48.7698 222.436 47.7577 221.91 46.6781L216.517 49.3059C217.612 51.5543 219.359 53.3582 221.586 54.7567L224.777 49.6753ZM221.923 46.7048C221.319 45.4333 220.997 44.0007 220.997 42.36H214.997C214.997 44.8153 215.486 47.1373 216.504 49.2792L221.923 46.7048ZM220.997 42.36C220.997 42.0797 221.053 41.5565 221.243 40.7209L215.392 39.3911C215.155 40.4328 214.997 41.4456 214.997 42.36H220.997ZM221.243 40.7209C221.391 40.0678 221.655 39.3499 222.065 38.5637L216.746 35.7883C216.132 36.9648 215.67 38.1669 215.392 39.3911L221.243 40.7209ZM222.017 38.6522C222.344 38.0745 222.774 37.6057 223.336 37.2227L219.955 32.2653C218.64 33.1623 217.577 34.3148 216.794 35.6998L222.017 38.6522ZM221.049 31.8039C217.863 32.4503 215.078 33.4532 212.803 34.901L216.024 39.963C217.504 39.0214 219.54 38.2323 222.242 37.6841L221.049 31.8039ZM212.803 34.901C210.636 36.2798 208.844 37.9406 207.512 39.9124L212.483 43.2716C213.284 42.0861 214.436 40.9735 216.024 39.963L212.803 34.901ZM207.501 39.9279C206.304 41.7239 205.432 43.632 204.916 45.6469L210.727 47.1371C211.064 45.824 211.643 44.5321 212.494 43.2561L207.501 39.9279ZM204.902 45.7006C204.471 47.5228 204.245 49.3128 204.245 51.064H210.245C210.245 49.8285 210.404 48.5039 210.741 47.0834L204.902 45.7006ZM204.245 51.064C204.245 53.1017 204.578 55.0578 205.265 56.9086L210.89 54.8194C210.468 53.6835 210.245 52.4397 210.245 51.064H204.245ZM205.275 56.9354C205.991 58.8064 207.08 60.4209 208.58 61.6811L212.439 57.0869C211.806 56.5551 211.274 55.823 210.88 54.7926L205.275 56.9354ZM208.58 61.6811C210.244 63.0786 212.249 63.728 214.413 63.728V57.728C213.506 57.728 212.909 57.4814 212.439 57.0869L208.58 61.6811Z" fill="white" mask="url(#path-1-outside-1_1_3)"/>
<mask id="path-3-outside-2_1_3" maskUnits="userSpaceOnUse" x="69" y="74" width="209" height="58" fill="black">
<rect fill="white" x="69" y="74" width="209" height="58"/>
<path d="M92.312 128.6C88.6427 128.6 85.336 127.853 82.392 126.36C79.4907 124.824 77.1867 122.477 75.48 119.32C73.7733 116.163 72.92 112.173 72.92 107.352C72.92 105.005 73.3253 102.595 74.136 100.12C74.9467 97.6453 76.12 95.256 77.656 92.952C79.2347 90.6053 81.176 88.5147 83.48 86.68C85.8267 84.8027 88.536 83.3307 91.608 82.264C94.68 81.1547 98.0933 80.6 101.848 80.6C104.152 80.6 106.221 80.92 108.056 81.56C109.933 82.2 111.405 83.16 112.472 84.44C113.539 85.6773 114.072 87.2347 114.072 89.112C114.072 90.9467 113.645 92.4827 112.792 93.72C111.981 94.9573 110.893 95.896 109.528 96.536C108.205 97.1333 106.755 97.432 105.176 97.432C103.299 97.432 101.464 96.9627 99.672 96.024C97.88 95.0853 96.4293 93.6987 95.32 91.864C93.8267 92.5893 92.4187 93.8267 91.096 95.576C89.816 97.2827 88.792 99.288 88.024 101.592C87.256 103.896 86.872 106.285 86.872 108.76C86.872 110.509 87.0853 112.152 87.512 113.688C87.9813 115.181 88.6853 116.397 89.624 117.336C90.5627 118.275 91.7573 118.744 93.208 118.744C94.4027 118.744 95.5547 118.296 96.664 117.4C97.7733 116.461 98.6907 115.224 99.416 113.688C100.141 112.152 100.504 110.424 100.504 108.504C103.107 108.504 105.283 108.632 107.032 108.888C108.824 109.101 110.189 109.592 111.128 110.36C112.067 111.128 112.536 112.323 112.536 113.944C112.536 115.565 112.067 117.229 111.128 118.936C110.189 120.643 108.824 122.243 107.032 123.736C105.283 125.187 103.149 126.36 100.632 127.256C98.1573 128.152 95.384 128.6 92.312 128.6ZM126.4 128.6C123.797 128.6 121.941 127.789 120.832 126.168C119.722 124.547 119.168 122.072 119.168 118.744C119.168 117.805 119.274 116.419 119.488 114.584C119.744 112.749 120.064 110.659 120.448 108.312C120.832 105.965 121.258 103.533 121.728 101.016C122.197 98.456 122.645 95.9813 123.072 93.592C123.498 91.2027 123.882 89.0693 124.224 87.192L120.64 82.072C122.901 80.7493 125.056 79.64 127.104 78.744C129.152 77.848 131.2 77.4 133.248 77.4C135.04 77.4 136.277 77.7627 136.96 78.488C137.685 79.1707 138.048 80.3227 138.048 81.944C138.048 83.4373 137.856 85.3147 137.472 87.576C137.088 89.7947 136.618 92.2267 136.064 94.872C135.509 97.4747 134.933 100.163 134.336 102.936C133.781 105.709 133.312 108.376 132.928 110.936C132.544 113.496 132.352 115.821 132.352 117.912C132.352 119.576 132.501 121.069 132.8 122.392C133.141 123.672 133.653 124.696 134.336 125.464C131.349 127.555 128.704 128.6 126.4 128.6ZM160.497 128.6C156.529 128.6 153.179 127.896 150.449 126.488C147.718 125.08 145.649 123.117 144.241 120.6C142.875 118.04 142.193 115.096 142.193 111.768C142.193 108.312 142.811 105.176 144.049 102.36C145.329 99.5013 147.099 97.048 149.361 95C151.622 92.952 154.246 91.3733 157.233 90.264C160.262 89.1547 163.526 88.6 167.025 88.6C171.163 88.6 174.214 89.5173 176.177 91.352C178.139 93.1867 179.121 95.4907 179.121 98.264C179.121 100.653 178.331 102.915 176.753 105.048C175.217 107.139 172.721 108.845 169.265 110.168C165.809 111.448 161.201 112.109 155.441 112.152C155.569 114.883 156.187 117.037 157.297 118.616C158.449 120.152 159.878 120.92 161.585 120.92C162.438 120.92 163.334 120.728 164.273 120.344C165.211 119.917 166.001 119.192 166.641 118.168C167.281 117.101 167.601 115.651 167.601 113.816C170.502 113.816 172.785 114.136 174.449 114.776C176.113 115.416 176.944 116.568 176.944 118.232C176.944 119.768 176.283 121.347 174.961 122.968C173.638 124.547 171.739 125.891 169.265 127C166.833 128.067 163.91 128.6 160.497 128.6ZM156.017 107.032C159.131 106.776 161.627 106.2 163.505 105.304C165.382 104.408 166.747 103.384 167.601 102.232C168.454 101.08 168.881 100.013 168.881 99.032C168.881 98.1787 168.625 97.4747 168.113 96.92C167.601 96.3653 166.875 96.088 165.937 96.088C164.401 96.088 162.971 96.6213 161.649 97.688C160.326 98.7547 159.174 100.141 158.193 101.848C157.254 103.512 156.529 105.24 156.017 107.032ZM195.903 128.6C193.514 128.6 191.402 127.981 189.567 126.744C187.775 125.507 186.388 123.757 185.407 121.496C184.426 119.235 183.935 116.589 183.935 113.56C183.935 110.019 184.554 106.733 185.791 103.704C187.071 100.675 188.82 98.0293 191.039 95.768C193.3 93.5067 195.946 91.7573 198.975 90.52C202.004 89.24 205.29 88.6 208.831 88.6C209.855 88.6 210.73 88.6427 211.455 88.728C212.223 88.7707 213.034 88.8987 213.887 89.112C214.143 90.3067 214.292 91.352 214.335 92.248C215.316 91.608 216.404 91.1173 217.599 90.776C218.794 90.392 219.903 90.2 220.927 90.2C224.042 90.2 225.599 91.8853 225.599 95.256C225.599 96.3653 225.386 97.88 224.959 99.8C224.575 101.677 224.106 103.768 223.551 106.072C223.039 108.333 222.57 110.659 222.143 113.048C221.759 115.395 221.567 117.592 221.567 119.64C221.567 122.413 222.228 124.355 223.551 125.464C221.162 127.555 218.623 128.6 215.935 128.6C213.46 128.6 211.626 127.832 210.431 126.296C209.279 124.76 208.703 122.371 208.703 119.128L208.063 118.808C206.911 121.88 205.247 124.291 203.071 126.04C200.938 127.747 198.548 128.6 195.903 128.6ZM200.959 116.952C202.623 116.952 204.244 116.355 205.823 115.16C207.402 113.965 208.724 112.323 209.791 110.232C209.962 108.568 210.132 107.011 210.303 105.56C210.516 104.067 210.772 102.488 211.071 100.824C211.412 99.16 211.818 97.1973 212.287 94.936C210.111 94.936 208.042 95.3627 206.079 96.216C204.159 97.0267 202.431 98.1573 200.895 99.608C199.359 101.059 198.143 102.723 197.247 104.6C196.394 106.435 195.967 108.376 195.967 110.424C195.967 112.515 196.394 114.136 197.247 115.288C198.143 116.397 199.38 116.952 200.959 116.952ZM239.508 128.6C236.82 128.6 234.9 127.917 233.748 126.552C232.596 125.187 232.02 123.224 232.02 120.664C232.02 119.768 232.148 118.403 232.404 116.568C232.66 114.691 232.98 112.621 233.364 110.36C233.791 108.056 234.239 105.752 234.708 103.448C235.177 101.144 235.625 99.096 236.052 97.304L232.724 92.184C234.473 91.2027 236.351 90.3707 238.356 89.688C240.404 88.9627 242.473 88.6 244.564 88.6C246.356 88.6 247.679 89.048 248.532 89.944C249.385 90.7973 249.812 91.9707 249.812 93.464C249.812 94.5733 249.663 95.7253 249.364 96.92C249.065 98.1147 248.724 99.1387 248.34 99.992L248.98 100.312C251.497 96.0027 254.249 92.9733 257.236 91.224C260.223 89.4747 263.273 88.6 266.388 88.6C268.991 88.6 270.932 89.24 272.212 90.52C273.492 91.7573 274.132 93.6987 274.132 96.344C274.132 98.648 273.812 101.101 273.172 103.704C272.575 106.264 271.956 108.909 271.316 111.64C270.676 114.328 270.356 116.995 270.356 119.64C270.356 122.285 270.804 124.227 271.7 125.464C269.439 127.555 267.092 128.6 264.66 128.6C261.972 128.6 260.052 127.917 258.9 126.552C257.748 125.187 257.172 123.224 257.172 120.664C257.172 119.256 257.364 117.699 257.748 115.992C258.132 114.243 258.58 112.472 259.092 110.68C259.604 108.888 260.052 107.203 260.436 105.624C260.82 104.045 261.012 102.68 261.012 101.528C261.012 100.632 260.841 99.928 260.5 99.416C260.201 98.904 259.647 98.648 258.836 98.648C257.684 98.648 256.34 99.16 254.804 100.184C253.268 101.208 251.753 102.659 250.26 104.536C248.809 106.371 247.593 108.568 246.612 111.128C245.673 113.688 245.204 116.525 245.204 119.64C245.204 122.285 245.652 124.227 246.548 125.464C244.287 127.555 241.94 128.6 239.508 128.6Z"/>
</mask>
<path d="M92.312 128.6C88.6427 128.6 85.336 127.853 82.392 126.36C79.4907 124.824 77.1867 122.477 75.48 119.32C73.7733 116.163 72.92 112.173 72.92 107.352C72.92 105.005 73.3253 102.595 74.136 100.12C74.9467 97.6453 76.12 95.256 77.656 92.952C79.2347 90.6053 81.176 88.5147 83.48 86.68C85.8267 84.8027 88.536 83.3307 91.608 82.264C94.68 81.1547 98.0933 80.6 101.848 80.6C104.152 80.6 106.221 80.92 108.056 81.56C109.933 82.2 111.405 83.16 112.472 84.44C113.539 85.6773 114.072 87.2347 114.072 89.112C114.072 90.9467 113.645 92.4827 112.792 93.72C111.981 94.9573 110.893 95.896 109.528 96.536C108.205 97.1333 106.755 97.432 105.176 97.432C103.299 97.432 101.464 96.9627 99.672 96.024C97.88 95.0853 96.4293 93.6987 95.32 91.864C93.8267 92.5893 92.4187 93.8267 91.096 95.576C89.816 97.2827 88.792 99.288 88.024 101.592C87.256 103.896 86.872 106.285 86.872 108.76C86.872 110.509 87.0853 112.152 87.512 113.688C87.9813 115.181 88.6853 116.397 89.624 117.336C90.5627 118.275 91.7573 118.744 93.208 118.744C94.4027 118.744 95.5547 118.296 96.664 117.4C97.7733 116.461 98.6907 115.224 99.416 113.688C100.141 112.152 100.504 110.424 100.504 108.504C103.107 108.504 105.283 108.632 107.032 108.888C108.824 109.101 110.189 109.592 111.128 110.36C112.067 111.128 112.536 112.323 112.536 113.944C112.536 115.565 112.067 117.229 111.128 118.936C110.189 120.643 108.824 122.243 107.032 123.736C105.283 125.187 103.149 126.36 100.632 127.256C98.1573 128.152 95.384 128.6 92.312 128.6ZM126.4 128.6C123.797 128.6 121.941 127.789 120.832 126.168C119.722 124.547 119.168 122.072 119.168 118.744C119.168 117.805 119.274 116.419 119.488 114.584C119.744 112.749 120.064 110.659 120.448 108.312C120.832 105.965 121.258 103.533 121.728 101.016C122.197 98.456 122.645 95.9813 123.072 93.592C123.498 91.2027 123.882 89.0693 124.224 87.192L120.64 82.072C122.901 80.7493 125.056 79.64 127.104 78.744C129.152 77.848 131.2 77.4 133.248 77.4C135.04 77.4 136.277 77.7627 136.96 78.488C137.685 79.1707 138.048 80.3227 138.048 81.944C138.048 83.4373 137.856 85.3147 137.472 87.576C137.088 89.7947 136.618 92.2267 136.064 94.872C135.509 97.4747 134.933 100.163 134.336 102.936C133.781 105.709 133.312 108.376 132.928 110.936C132.544 113.496 132.352 115.821 132.352 117.912C132.352 119.576 132.501 121.069 132.8 122.392C133.141 123.672 133.653 124.696 134.336 125.464C131.349 127.555 128.704 128.6 126.4 128.6ZM160.497 128.6C156.529 128.6 153.179 127.896 150.449 126.488C147.718 125.08 145.649 123.117 144.241 120.6C142.875 118.04 142.193 115.096 142.193 111.768C142.193 108.312 142.811 105.176 144.049 102.36C145.329 99.5013 147.099 97.048 149.361 95C151.622 92.952 154.246 91.3733 157.233 90.264C160.262 89.1547 163.526 88.6 167.025 88.6C171.163 88.6 174.214 89.5173 176.177 91.352C178.139 93.1867 179.121 95.4907 179.121 98.264C179.121 100.653 178.331 102.915 176.753 105.048C175.217 107.139 172.721 108.845 169.265 110.168C165.809 111.448 161.201 112.109 155.441 112.152C155.569 114.883 156.187 117.037 157.297 118.616C158.449 120.152 159.878 120.92 161.585 120.92C162.438 120.92 163.334 120.728 164.273 120.344C165.211 119.917 166.001 119.192 166.641 118.168C167.281 117.101 167.601 115.651 167.601 113.816C170.502 113.816 172.785 114.136 174.449 114.776C176.113 115.416 176.944 116.568 176.944 118.232C176.944 119.768 176.283 121.347 174.961 122.968C173.638 124.547 171.739 125.891 169.265 127C166.833 128.067 163.91 128.6 160.497 128.6ZM156.017 107.032C159.131 106.776 161.627 106.2 163.505 105.304C165.382 104.408 166.747 103.384 167.601 102.232C168.454 101.08 168.881 100.013 168.881 99.032C168.881 98.1787 168.625 97.4747 168.113 96.92C167.601 96.3653 166.875 96.088 165.937 96.088C164.401 96.088 162.971 96.6213 161.649 97.688C160.326 98.7547 159.174 100.141 158.193 101.848C157.254 103.512 156.529 105.24 156.017 107.032ZM195.903 128.6C193.514 128.6 191.402 127.981 189.567 126.744C187.775 125.507 186.388 123.757 185.407 121.496C184.426 119.235 183.935 116.589 183.935 113.56C183.935 110.019 184.554 106.733 185.791 103.704C187.071 100.675 188.82 98.0293 191.039 95.768C193.3 93.5067 195.946 91.7573 198.975 90.52C202.004 89.24 205.29 88.6 208.831 88.6C209.855 88.6 210.73 88.6427 211.455 88.728C212.223 88.7707 213.034 88.8987 213.887 89.112C214.143 90.3067 214.292 91.352 214.335 92.248C215.316 91.608 216.404 91.1173 217.599 90.776C218.794 90.392 219.903 90.2 220.927 90.2C224.042 90.2 225.599 91.8853 225.599 95.256C225.599 96.3653 225.386 97.88 224.959 99.8C224.575 101.677 224.106 103.768 223.551 106.072C223.039 108.333 222.57 110.659 222.143 113.048C221.759 115.395 221.567 117.592 221.567 119.64C221.567 122.413 222.228 124.355 223.551 125.464C221.162 127.555 218.623 128.6 215.935 128.6C213.46 128.6 211.626 127.832 210.431 126.296C209.279 124.76 208.703 122.371 208.703 119.128L208.063 118.808C206.911 121.88 205.247 124.291 203.071 126.04C200.938 127.747 198.548 128.6 195.903 128.6ZM200.959 116.952C202.623 116.952 204.244 116.355 205.823 115.16C207.402 113.965 208.724 112.323 209.791 110.232C209.962 108.568 210.132 107.011 210.303 105.56C210.516 104.067 210.772 102.488 211.071 100.824C211.412 99.16 211.818 97.1973 212.287 94.936C210.111 94.936 208.042 95.3627 206.079 96.216C204.159 97.0267 202.431 98.1573 200.895 99.608C199.359 101.059 198.143 102.723 197.247 104.6C196.394 106.435 195.967 108.376 195.967 110.424C195.967 112.515 196.394 114.136 197.247 115.288C198.143 116.397 199.38 116.952 200.959 116.952ZM239.508 128.6C236.82 128.6 234.9 127.917 233.748 126.552C232.596 125.187 232.02 123.224 232.02 120.664C232.02 119.768 232.148 118.403 232.404 116.568C232.66 114.691 232.98 112.621 233.364 110.36C233.791 108.056 234.239 105.752 234.708 103.448C235.177 101.144 235.625 99.096 236.052 97.304L232.724 92.184C234.473 91.2027 236.351 90.3707 238.356 89.688C240.404 88.9627 242.473 88.6 244.564 88.6C246.356 88.6 247.679 89.048 248.532 89.944C249.385 90.7973 249.812 91.9707 249.812 93.464C249.812 94.5733 249.663 95.7253 249.364 96.92C249.065 98.1147 248.724 99.1387 248.34 99.992L248.98 100.312C251.497 96.0027 254.249 92.9733 257.236 91.224C260.223 89.4747 263.273 88.6 266.388 88.6C268.991 88.6 270.932 89.24 272.212 90.52C273.492 91.7573 274.132 93.6987 274.132 96.344C274.132 98.648 273.812 101.101 273.172 103.704C272.575 106.264 271.956 108.909 271.316 111.64C270.676 114.328 270.356 116.995 270.356 119.64C270.356 122.285 270.804 124.227 271.7 125.464C269.439 127.555 267.092 128.6 264.66 128.6C261.972 128.6 260.052 127.917 258.9 126.552C257.748 125.187 257.172 123.224 257.172 120.664C257.172 119.256 257.364 117.699 257.748 115.992C258.132 114.243 258.58 112.472 259.092 110.68C259.604 108.888 260.052 107.203 260.436 105.624C260.82 104.045 261.012 102.68 261.012 101.528C261.012 100.632 260.841 99.928 260.5 99.416C260.201 98.904 259.647 98.648 258.836 98.648C257.684 98.648 256.34 99.16 254.804 100.184C253.268 101.208 251.753 102.659 250.26 104.536C248.809 106.371 247.593 108.568 246.612 111.128C245.673 113.688 245.204 116.525 245.204 119.64C245.204 122.285 245.652 124.227 246.548 125.464C244.287 127.555 241.94 128.6 239.508 128.6Z" fill="#02276E"/>
<path d="M82.392 126.36L80.9883 129.011L81.0115 129.024L81.0349 129.035L82.392 126.36ZM75.48 119.32L72.8409 120.747L75.48 119.32ZM77.656 92.952L75.1668 91.2775L75.1598 91.2879L77.656 92.952ZM83.48 86.68L85.3488 89.0268L85.3541 89.0226L83.48 86.68ZM91.608 82.264L92.592 85.098L92.6095 85.0919L92.6269 85.0857L91.608 82.264ZM108.056 81.56L107.068 84.3926L107.078 84.3961L107.088 84.3995L108.056 81.56ZM112.472 84.44L110.167 86.3605L110.183 86.3798L110.2 86.3988L112.472 84.44ZM112.792 93.72L110.322 92.0168L110.302 92.0461L110.283 92.0759L112.792 93.72ZM109.528 96.536L110.763 99.2701L110.782 99.2614L110.801 99.2524L109.528 96.536ZM95.32 91.864L97.8872 90.3117L96.4711 87.9697L94.0093 89.1655L95.32 91.864ZM91.096 95.576L88.703 93.7667L88.696 93.776L91.096 95.576ZM88.024 101.592L85.1779 100.643L88.024 101.592ZM87.512 113.688L84.6214 114.491L84.6349 114.539L84.65 114.587L87.512 113.688ZM89.624 117.336L87.5027 119.457L87.5027 119.457L89.624 117.336ZM96.664 117.4L98.549 119.734L98.5757 119.712L98.6018 119.69L96.664 117.4ZM99.416 113.688L102.129 114.969V114.969L99.416 113.688ZM100.504 108.504V105.504H97.504V108.504H100.504ZM107.032 108.888L106.598 111.856L106.637 111.862L106.677 111.867L107.032 108.888ZM111.128 110.36L109.228 112.682L111.128 110.36ZM111.128 118.936L113.757 120.382L111.128 118.936ZM107.032 123.736L108.947 126.045L108.953 126.041L107.032 123.736ZM100.632 127.256L99.626 124.43L99.6183 124.432L99.6107 124.435L100.632 127.256ZM92.312 125.6C89.0609 125.6 86.2274 124.942 83.7491 123.685L81.0349 129.035C84.4446 130.765 88.2244 131.6 92.312 131.6V125.6ZM83.7957 123.709C81.4668 122.476 79.5714 120.58 78.1191 117.893L72.8409 120.747C74.8019 124.374 77.5145 127.172 80.9883 129.011L83.7957 123.709ZM78.1191 117.893C76.7167 115.299 75.92 111.839 75.92 107.352H69.92C69.92 112.507 70.83 117.026 72.8409 120.747L78.1191 117.893ZM75.92 107.352C75.92 105.355 76.2643 103.26 76.9869 101.054L71.2851 99.1861C70.3864 101.929 69.92 104.655 69.92 107.352H75.92ZM76.9869 101.054C77.7078 98.8534 78.7574 96.7082 80.1522 94.6161L75.1598 91.2879C73.4826 93.8038 72.1856 96.4372 71.2851 99.1861L76.9869 101.054ZM80.1452 94.6265C81.5456 92.5448 83.2747 90.6784 85.3488 89.0268L81.6112 84.3332C79.0773 86.3509 76.9237 88.6659 75.1668 91.2775L80.1452 94.6265ZM85.3541 89.0226C87.4131 87.3754 89.816 86.0619 92.592 85.098L90.624 79.43C87.256 80.5994 84.2402 82.23 81.6059 84.3374L85.3541 89.0226ZM92.6269 85.0857C95.3273 84.1105 98.3896 83.6 101.848 83.6V77.6C97.7971 77.6 94.0327 78.1988 90.5891 79.4423L92.6269 85.0857ZM101.848 83.6C103.876 83.6 105.604 83.8818 107.068 84.3926L109.044 78.7274C106.839 77.9582 104.428 77.6 101.848 77.6V83.6ZM107.088 84.3995C108.544 84.8959 109.515 85.5783 110.167 86.3605L114.777 82.5194C113.295 80.7417 111.323 79.5041 109.024 78.7205L107.088 84.3995ZM110.2 86.3988C110.728 87.0111 111.072 87.8399 111.072 89.112H117.072C117.072 86.6294 116.35 84.3436 114.744 82.4812L110.2 86.3988ZM111.072 89.112C111.072 90.4743 110.76 91.3816 110.322 92.0168L115.262 95.4232C116.53 93.5837 117.072 91.4191 117.072 89.112H111.072ZM110.283 92.0759C109.783 92.8388 109.127 93.4108 108.255 93.8196L110.801 99.2524C112.66 98.3812 114.18 97.0759 115.301 95.3641L110.283 92.0759ZM108.293 93.8019C107.392 94.209 106.367 94.432 105.176 94.432V100.432C107.143 100.432 109.019 100.058 110.763 99.2701L108.293 93.8019ZM105.176 94.432C103.821 94.432 102.461 94.0981 101.064 93.3665L98.28 98.6815C100.467 99.8273 102.777 100.432 105.176 100.432V94.432ZM101.064 93.3665C99.7867 92.6974 98.7307 91.7068 97.8872 90.3117L92.7528 93.4163C94.1279 95.6905 95.9733 97.4732 98.28 98.6815L101.064 93.3665ZM94.0093 89.1655C91.9758 90.1532 90.2232 91.7561 88.703 93.7667L93.489 97.3853C94.6141 95.8972 95.6776 95.0255 96.6307 94.5625L94.0093 89.1655ZM88.696 93.776C87.1978 95.7736 86.034 98.0751 85.1779 100.643L90.8701 102.541C91.55 100.501 92.4342 98.7918 93.496 97.376L88.696 93.776ZM85.1779 100.643C84.306 103.259 83.872 105.969 83.872 108.76H89.872C89.872 106.602 90.206 104.533 90.8701 102.541L85.1779 100.643ZM83.872 108.76C83.872 110.755 84.1155 112.669 84.6214 114.491L90.4026 112.885C90.0552 111.635 89.872 110.264 89.872 108.76H83.872ZM84.65 114.587C85.2383 116.459 86.166 118.121 87.5027 119.457L91.7453 115.215C91.2046 114.674 90.7243 113.903 90.374 112.789L84.65 114.587ZM87.5027 119.457C89.0589 121.014 91.043 121.744 93.208 121.744V115.744C92.4717 115.744 92.0664 115.536 91.7453 115.215L87.5027 119.457ZM93.208 121.744C95.2151 121.744 97.0134 120.974 98.549 119.734L94.779 115.066C94.0959 115.618 93.5902 115.744 93.208 115.744V121.744ZM98.6018 119.69C100.089 118.431 101.251 116.828 102.129 114.969L96.7033 112.407C96.1304 113.62 95.4573 114.491 94.7262 115.11L98.6018 119.69ZM102.129 114.969C103.067 112.983 103.504 110.809 103.504 108.504H97.504C97.504 110.039 97.2162 111.321 96.7033 112.407L102.129 114.969ZM100.504 111.504C103.022 111.504 105.042 111.629 106.598 111.856L107.466 105.92C105.523 105.635 103.191 105.504 100.504 105.504V111.504ZM106.677 111.867C108.162 112.044 108.898 112.411 109.228 112.682L113.028 108.038C111.481 106.773 109.486 106.159 107.387 105.909L106.677 111.867ZM109.228 112.682C109.254 112.703 109.536 112.899 109.536 113.944H115.536C115.536 111.746 114.879 109.553 113.028 108.038L109.228 112.682ZM109.536 113.944C109.536 114.967 109.243 116.138 108.499 117.49L113.757 120.382C114.89 118.321 115.536 116.163 115.536 113.944H109.536ZM108.499 117.49C107.773 118.811 106.671 120.131 105.111 121.431L108.953 126.041C110.977 124.354 112.606 122.474 113.757 120.382L108.499 117.49ZM105.117 121.427C103.681 122.618 101.869 123.631 99.626 124.43L101.638 130.082C104.429 129.089 106.884 127.756 108.947 126.045L105.117 121.427ZM99.6107 124.435C97.5132 125.195 95.0928 125.6 92.312 125.6V131.6C95.6752 131.6 98.8015 131.109 101.653 130.077L99.6107 124.435ZM120.832 126.168L118.356 127.862L120.832 126.168ZM119.487 114.584L116.516 114.169L116.512 114.203L116.508 114.237L119.487 114.584ZM120.448 108.312L117.487 107.828L120.448 108.312ZM121.728 101.016L124.677 101.566L124.678 101.557L121.728 101.016ZM123.072 93.592L126.025 94.1194L123.072 93.592ZM124.223 87.192L127.175 87.7287L127.399 86.4971L126.681 85.4716L124.223 87.192ZM120.639 82.072L119.125 79.4824L116.315 81.1258L118.182 83.7924L120.639 82.072ZM127.104 78.744L128.306 81.4925H128.306L127.104 78.744ZM136.96 78.488L134.775 80.5441L134.837 80.6103L134.903 80.6726L136.96 78.488ZM137.471 87.576L140.428 88.0876L140.429 88.0782L137.471 87.576ZM136.063 94.872L138.998 95.4973L139 95.4876L136.063 94.872ZM134.336 102.936L131.403 102.304L131.398 102.326L131.394 102.348L134.336 102.936ZM132.928 110.936L135.894 111.381L132.928 110.936ZM132.799 122.392L129.873 123.053L129.886 123.109L129.901 123.165L132.799 122.392ZM134.336 125.464L136.056 127.922L138.816 125.989L136.578 123.471L134.336 125.464ZM126.4 125.6C124.432 125.6 123.683 125.023 123.307 124.474L118.356 127.862C120.199 130.556 123.162 131.6 126.4 131.6V125.6ZM123.307 124.474C122.703 123.591 122.167 121.843 122.167 118.744H116.167C116.167 122.301 116.741 125.503 118.356 127.862L123.307 124.474ZM122.167 118.744C122.167 117.984 122.257 116.738 122.467 114.931L116.508 114.237C116.291 116.1 116.167 117.626 116.167 118.744H122.167ZM122.459 114.999C122.711 113.193 123.027 111.126 123.408 108.796L117.487 107.828C117.1 110.191 116.776 112.306 116.516 114.169L122.459 114.999ZM123.408 108.796C123.788 106.473 124.211 104.063 124.677 101.566L118.778 100.466C118.305 103.004 117.875 105.457 117.487 107.828L123.408 108.796ZM124.678 101.557C125.148 98.9928 125.597 96.5136 126.025 94.1194L120.118 93.0646C119.692 95.4491 119.245 97.9192 118.777 100.475L124.678 101.557ZM126.025 94.1194C126.451 91.7323 126.834 89.6022 127.175 87.7287L121.272 86.6553C120.93 88.5365 120.545 90.673 120.118 93.0646L126.025 94.1194ZM126.681 85.4716L123.097 80.3516L118.182 83.7924L121.766 88.9124L126.681 85.4716ZM122.154 84.6616C124.331 83.3882 126.381 82.3345 128.306 81.4925L125.901 75.9955C123.73 76.9455 121.47 78.1105 119.125 79.4824L122.154 84.6616ZM128.306 81.4925C130.01 80.747 131.65 80.4 133.248 80.4V74.4C130.749 74.4 128.293 74.949 125.901 75.9955L128.306 81.4925ZM133.248 80.4C133.96 80.4 134.414 80.4743 134.676 80.5509C134.93 80.6253 134.892 80.6685 134.775 80.5441L139.144 76.4319C137.581 74.771 135.257 74.4 133.248 74.4V80.4ZM134.903 80.6726C134.82 80.5944 134.854 80.5751 134.914 80.7649C134.978 80.969 135.048 81.3414 135.048 81.944H141.048C141.048 79.9962 140.63 77.8231 139.016 76.3034L134.903 80.6726ZM135.048 81.944C135.048 83.2051 134.883 84.9004 134.514 87.0738L140.429 88.0782C140.828 85.7289 141.048 83.6696 141.048 81.944H135.048ZM134.515 87.0644C134.139 89.2422 133.676 91.639 133.127 94.2564L139 95.4876C139.56 92.8143 140.036 90.3471 140.428 88.0876L134.515 87.0644ZM133.129 94.2467C132.575 96.8471 132 99.533 131.403 102.304L137.268 103.568C137.866 100.792 138.442 98.1022 138.998 95.4973L133.129 94.2467ZM131.394 102.348C130.83 105.164 130.353 107.879 129.961 110.491L135.894 111.381C136.27 108.873 136.731 106.254 137.277 103.524L131.394 102.348ZM129.961 110.491C129.56 113.165 129.352 115.642 129.352 117.912H135.352C135.352 116 135.527 113.827 135.894 111.381L129.961 110.491ZM129.352 117.912C129.352 119.75 129.516 121.471 129.873 123.053L135.726 121.731C135.486 120.668 135.352 119.402 135.352 117.912H129.352ZM129.901 123.165C130.329 124.771 131.023 126.253 132.093 127.457L136.578 123.471C136.283 123.139 135.953 122.573 135.698 121.619L129.901 123.165ZM132.615 123.006C129.862 124.934 127.824 125.6 126.4 125.6V131.6C129.583 131.6 132.836 130.176 136.056 127.922L132.615 123.006ZM150.449 126.488L151.823 123.822H151.823L150.449 126.488ZM144.241 120.6L141.593 122.012L141.608 122.038L141.622 122.064L144.241 120.6ZM144.049 102.36L141.31 101.134L141.306 101.144L141.302 101.153L144.049 102.36ZM149.361 95L151.374 97.2236L149.361 95ZM157.232 90.264L156.201 87.4469L156.188 87.4517L157.232 90.264ZM176.176 91.352L178.225 89.1604V89.1604L176.176 91.352ZM176.753 105.048L174.341 103.263L174.335 103.272L176.753 105.048ZM169.265 110.168L170.306 112.981L170.322 112.976L170.337 112.97L169.265 110.168ZM155.44 112.152L155.418 109.152L152.298 109.175L152.444 112.292L155.44 112.152ZM157.297 118.616L154.842 120.341L154.869 120.379L154.896 120.416L157.297 118.616ZM164.272 120.344L165.408 123.121L165.462 123.099L165.514 123.075L164.272 120.344ZM166.641 118.168L169.184 119.758L169.199 119.735L169.213 119.711L166.641 118.168ZM167.601 113.816V110.816H164.601V113.816H167.601ZM174.961 122.968L177.26 124.895L177.273 124.88L177.285 124.864L174.961 122.968ZM169.265 127L170.469 129.747L170.481 129.742L170.492 129.738L169.265 127ZM156.017 107.032L153.132 106.208L151.941 110.377L156.262 110.022L156.017 107.032ZM167.601 102.232L170.011 104.018L167.601 102.232ZM168.113 96.92L170.317 94.8852L168.113 96.92ZM161.648 97.688L159.765 95.3528V95.3528L161.648 97.688ZM158.193 101.848L155.592 100.353L155.586 100.363L155.58 100.374L158.193 101.848ZM160.497 125.6C156.872 125.6 154.023 124.956 151.823 123.822L149.074 129.154C152.335 130.836 156.185 131.6 160.497 131.6V125.6ZM151.823 123.822C149.58 122.665 147.96 121.105 146.859 119.136L141.622 122.064C143.337 125.13 145.855 127.495 149.074 129.154L151.823 123.822ZM146.888 119.188C145.786 117.123 145.192 114.677 145.192 111.768H139.192C139.192 115.515 139.964 118.957 141.593 122.012L146.888 119.188ZM145.192 111.768C145.192 108.676 145.744 105.958 146.795 103.567L141.302 101.153C139.878 104.394 139.192 107.948 139.192 111.768H145.192ZM146.787 103.586C147.901 101.096 149.429 98.9853 151.374 97.2236L147.347 92.7764C144.769 95.1107 142.756 97.9066 141.31 101.134L146.787 103.586ZM151.374 97.2236C153.34 95.443 155.632 94.0588 158.277 93.0763L156.188 87.4517C152.86 88.6879 149.903 90.461 147.347 92.7764L151.374 97.2236ZM158.264 93.0811C160.936 92.1026 163.848 91.6 167.025 91.6V85.6C163.204 85.6 159.588 86.2068 156.201 87.4469L158.264 93.0811ZM167.025 91.6C170.8 91.6 172.956 92.4479 174.128 93.5436L178.225 89.1604C175.472 86.5867 171.526 85.6 167.025 85.6V91.6ZM174.128 93.5436C175.462 94.7906 176.12 96.2911 176.12 98.264H182.12C182.12 94.6902 180.816 91.5827 178.225 89.1604L174.128 93.5436ZM176.12 98.264C176.12 99.9399 175.582 101.587 174.341 103.263L179.164 106.833C181.08 104.243 182.12 101.367 182.12 98.264H176.12ZM174.335 103.272C173.256 104.741 171.329 106.166 168.192 107.366L170.337 112.97C174.112 111.525 177.177 109.537 179.17 106.824L174.335 103.272ZM168.223 107.355C165.224 108.465 161.004 109.111 155.418 109.152L155.463 115.152C161.397 115.108 166.393 114.431 170.306 112.981L168.223 107.355ZM152.444 112.292C152.588 115.366 153.296 118.14 154.842 120.341L159.751 116.891C159.079 115.934 158.549 114.4 158.437 112.012L152.444 112.292ZM154.896 120.416C156.534 122.599 158.806 123.92 161.585 123.92V117.92C160.95 117.92 160.363 117.705 159.697 116.816L154.896 120.416ZM161.585 123.92C162.893 123.92 164.176 123.625 165.408 123.121L163.137 117.567C162.492 117.831 161.982 117.92 161.585 117.92V123.92ZM165.514 123.075C167.076 122.365 168.287 121.195 169.184 119.758L164.097 116.578C163.714 117.189 163.346 117.47 163.031 117.613L165.514 123.075ZM169.213 119.711C170.235 118.008 170.601 115.953 170.601 113.816H164.601C164.601 115.348 164.326 116.195 164.068 116.625L169.213 119.711ZM167.601 116.816C170.335 116.816 172.199 117.125 173.372 117.576L175.525 111.976C173.37 111.147 170.668 110.816 167.601 110.816V116.816ZM173.372 117.576C173.586 117.659 173.717 117.736 173.791 117.789C173.862 117.84 173.885 117.871 173.888 117.876C173.891 117.881 173.9 117.892 173.911 117.93C173.924 117.972 173.945 118.066 173.945 118.232H179.945C179.945 116.881 179.598 115.534 178.753 114.364C177.918 113.208 176.763 112.452 175.525 111.976L173.372 117.576ZM173.945 118.232C173.945 118.863 173.679 119.793 172.636 121.072L177.285 124.864C178.887 122.901 179.945 120.673 179.945 118.232H173.945ZM172.661 121.041C171.707 122.18 170.224 123.282 168.037 124.262L170.492 129.738C173.255 128.499 175.569 126.913 177.26 124.895L172.661 121.041ZM168.06 124.253C166.099 125.112 163.609 125.6 160.497 125.6V131.6C164.211 131.6 167.566 131.021 170.469 129.747L168.06 124.253ZM156.262 110.022C159.576 109.75 162.469 109.122 164.797 108.011L162.212 102.597C160.785 103.278 158.687 103.802 155.771 104.042L156.262 110.022ZM164.797 108.011C166.931 106.993 168.764 105.701 170.011 104.018L165.19 100.446C164.73 101.067 163.833 101.823 162.212 102.597L164.797 108.011ZM170.011 104.018C171.078 102.577 171.881 100.892 171.881 99.032H165.881C165.881 99.1348 165.83 99.5827 165.19 100.446L170.011 104.018ZM171.881 99.032C171.881 97.5304 171.408 96.0672 170.317 94.8852L165.908 98.9548C165.905 98.9517 165.897 98.942 165.888 98.9266C165.878 98.9111 165.872 98.8975 165.869 98.8892C165.866 98.8814 165.869 98.8857 165.872 98.9066C165.876 98.928 165.881 98.9686 165.881 99.032H171.881ZM170.317 94.8852C169.104 93.5712 167.494 93.088 165.937 93.088V99.088C166.114 99.088 166.156 99.1144 166.113 99.0982C166.091 99.0898 166.056 99.0734 166.015 99.0455C165.973 99.0175 165.937 98.9857 165.908 98.9548L170.317 94.8852ZM165.937 93.088C163.642 93.088 161.561 93.9045 159.765 95.3528L163.532 100.023C164.381 99.3381 165.159 99.088 165.937 99.088V93.088ZM159.765 95.3528C158.112 96.6864 156.729 98.3743 155.592 100.353L160.793 103.343C161.618 101.908 162.54 100.823 163.532 100.023L159.765 95.3528ZM155.58 100.374C154.528 102.238 153.71 104.184 153.132 106.208L158.901 107.856C159.347 106.296 159.98 104.786 160.805 103.322L155.58 100.374ZM189.567 126.744L187.862 129.213L187.876 129.222L187.89 129.231L189.567 126.744ZM185.407 121.496L182.655 122.69V122.69L185.407 121.496ZM185.791 103.704L183.028 102.536L183.021 102.553L183.014 102.57L185.791 103.704ZM191.039 95.768L188.918 93.6467L188.908 93.6568L188.898 93.667L191.039 95.768ZM198.975 90.52L200.109 93.2973L200.126 93.2904L200.143 93.2834L198.975 90.52ZM211.455 88.728L211.104 91.7074L211.196 91.7183L211.289 91.7234L211.455 88.728ZM213.887 89.112L216.82 88.4834L216.429 86.6551L214.615 86.2016L213.887 89.112ZM214.335 92.248L211.338 92.3907L211.587 97.6215L215.974 94.7608L214.335 92.248ZM217.599 90.776L218.423 93.6606L218.47 93.6471L218.517 93.6321L217.599 90.776ZM224.959 99.8L222.03 99.1492L222.025 99.174L222.02 99.1988L224.959 99.8ZM223.551 106.072L220.634 105.37L220.63 105.39L220.625 105.41L223.551 106.072ZM222.143 113.048L219.19 112.521L219.186 112.542L219.182 112.564L222.143 113.048ZM223.551 125.464L225.527 127.722L228.162 125.416L225.479 123.165L223.551 125.464ZM210.431 126.296L208.031 128.096L208.047 128.117L208.063 128.138L210.431 126.296ZM208.703 119.128H211.703V117.274L210.045 116.445L208.703 119.128ZM208.063 118.808L209.405 116.125L206.424 114.634L205.254 117.755L208.063 118.808ZM203.071 126.04L204.945 128.383L204.951 128.378L203.071 126.04ZM205.823 115.16L207.633 117.552L205.823 115.16ZM209.791 110.232L212.463 111.595L212.718 111.096L212.775 110.538L209.791 110.232ZM210.303 105.56L207.333 105.136L207.328 105.173L207.324 105.209L210.303 105.56ZM211.071 100.824L208.132 100.221L208.125 100.257L208.118 100.294L211.071 100.824ZM212.287 94.936L215.224 95.5456L215.974 91.936H212.287V94.936ZM206.079 96.216L207.246 98.9797L207.261 98.9736L207.275 98.9672L206.079 96.216ZM200.895 99.608L198.835 97.427V97.427L200.895 99.608ZM197.247 104.6L194.54 103.308L194.533 103.321L194.527 103.335L197.247 104.6ZM197.247 115.288L194.836 117.074L194.874 117.124L194.913 117.173L197.247 115.288ZM195.903 125.6C194.061 125.6 192.544 125.133 191.244 124.257L187.89 129.231C190.26 130.83 192.966 131.6 195.903 131.6V125.6ZM191.272 124.275C190 123.397 188.947 122.118 188.159 120.302L182.655 122.69C183.829 125.396 185.55 127.616 187.862 129.213L191.272 124.275ZM188.159 120.302C187.374 118.493 186.935 116.27 186.935 113.56H180.935C180.935 116.909 181.477 119.976 182.655 122.69L188.159 120.302ZM186.935 113.56C186.935 110.375 187.49 107.479 188.568 104.838L183.014 102.57C181.618 105.988 180.935 109.662 180.935 113.56H186.935ZM188.554 104.872C189.693 102.176 191.236 99.8509 193.18 97.869L188.898 93.667C186.405 96.2078 184.449 99.173 183.028 102.536L188.554 104.872ZM193.16 97.8893C195.133 95.9167 197.441 94.3873 200.109 93.2973L197.841 87.7427C194.451 89.1273 191.468 91.0966 188.918 93.6467L193.16 97.8893ZM200.143 93.2834C202.775 92.1712 205.66 91.6 208.831 91.6V85.6C204.92 85.6 201.234 86.3088 197.807 87.7566L200.143 93.2834ZM208.831 91.6C209.78 91.6 210.531 91.64 211.104 91.7074L211.806 85.7485C210.928 85.6453 209.93 85.6 208.831 85.6V91.6ZM211.289 91.7234C211.843 91.7542 212.464 91.8487 213.159 92.0224L214.615 86.2016C213.603 85.9487 212.603 85.7872 211.621 85.7326L211.289 91.7234ZM210.954 89.7406C211.187 90.8283 211.306 91.7046 211.338 92.3907L217.332 92.1053C217.279 90.9994 217.099 89.785 216.82 88.4834L210.954 89.7406ZM215.974 94.7608C216.689 94.2944 217.5 93.9244 218.423 93.6606L216.775 87.8914C215.309 88.3102 213.944 88.9215 212.696 89.7352L215.974 94.7608ZM218.517 93.6321C219.479 93.3228 220.276 93.2 220.927 93.2V87.2C219.53 87.2 218.108 87.4612 216.681 87.9199L218.517 93.6321ZM220.927 93.2C221.958 93.2 222.198 93.468 222.228 93.5C222.299 93.5767 222.599 93.9769 222.599 95.256H228.599C228.599 93.1645 228.121 91.0366 226.634 89.428C225.107 87.7747 223.01 87.2 220.927 87.2V93.2ZM222.599 95.256C222.599 96.0405 222.44 97.306 222.03 99.1492L227.888 100.451C228.331 98.454 228.599 96.6901 228.599 95.256H222.599ZM222.02 99.1988C221.644 101.036 221.183 103.092 220.634 105.37L226.468 106.774C227.029 104.444 227.506 102.319 227.898 100.401L222.02 99.1988ZM220.625 105.41C220.102 107.718 219.624 110.088 219.19 112.521L225.096 113.575C225.515 111.229 225.976 108.949 226.477 106.734L220.625 105.41ZM219.182 112.564C218.776 115.045 218.567 117.406 218.567 119.64H224.567C224.567 117.778 224.742 115.744 225.104 113.532L219.182 112.564ZM218.567 119.64C218.567 122.769 219.298 125.813 221.623 127.763L225.479 123.165C225.158 122.897 224.567 122.058 224.567 119.64H218.567ZM221.575 123.206C219.629 124.91 217.769 125.6 215.935 125.6V131.6C219.477 131.6 222.695 130.2 225.527 127.722L221.575 123.206ZM215.935 125.6C214.111 125.6 213.275 125.066 212.799 124.454L208.063 128.138C209.976 130.598 212.81 131.6 215.935 131.6V125.6ZM212.831 124.496C212.256 123.73 211.703 122.126 211.703 119.128H205.703C205.703 122.615 206.302 125.79 208.031 128.096L212.831 124.496ZM210.045 116.445L209.405 116.125L206.721 121.491L207.361 121.811L210.045 116.445ZM205.254 117.755C204.258 120.412 202.88 122.345 201.191 123.702L204.951 128.378C207.614 126.237 209.564 123.348 210.872 119.861L205.254 117.755ZM201.197 123.697C199.577 124.994 197.843 125.6 195.903 125.6V131.6C199.253 131.6 202.299 130.5 204.945 128.383L201.197 123.697ZM200.959 119.952C203.394 119.952 205.636 119.064 207.633 117.552L204.013 112.768C202.853 113.645 201.852 113.952 200.959 113.952V119.952ZM207.633 117.552C209.634 116.038 211.229 114.015 212.463 111.595L207.119 108.869C206.22 110.63 205.169 111.893 204.013 112.768L207.633 117.552ZM212.775 110.538C212.945 108.887 213.114 107.344 213.282 105.911L207.324 105.209C207.151 106.677 206.979 108.249 206.807 109.926L212.775 110.538ZM213.273 105.984C213.481 104.53 213.731 102.987 214.024 101.354L208.118 100.294C207.814 101.989 207.552 103.603 207.333 105.136L213.273 105.984ZM214.01 101.427C214.351 99.7657 214.755 97.8055 215.224 95.5456L209.35 94.3263C208.88 96.5892 208.474 98.5543 208.132 100.221L214.01 101.427ZM212.287 91.936C209.707 91.936 207.229 92.4445 204.883 93.4648L207.275 98.9672C208.854 98.2808 210.515 97.936 212.287 97.936V91.936ZM204.912 93.4522C202.657 94.4042 200.628 95.7337 198.835 97.427L202.955 101.789C204.234 100.581 205.661 99.6491 207.246 98.9797L204.912 93.4522ZM198.835 97.427C197.035 99.1274 195.597 101.092 194.54 103.308L199.954 105.892C200.689 104.354 201.683 102.99 202.955 101.789L198.835 97.427ZM194.527 103.335C193.487 105.571 192.967 107.944 192.967 110.424H198.967C198.967 108.808 199.3 107.299 199.967 105.865L194.527 103.335ZM192.967 110.424C192.967 112.875 193.461 115.216 194.836 117.074L199.658 113.502C199.327 113.056 198.967 112.154 198.967 110.424H192.967ZM194.913 117.173C196.445 119.069 198.584 119.952 200.959 119.952V113.952C200.176 113.952 199.841 113.726 199.581 113.403L194.913 117.173ZM233.748 126.552L231.455 128.487L233.748 126.552ZM232.404 116.568L235.375 116.983L235.376 116.973L232.404 116.568ZM233.364 110.36L230.414 109.814L230.41 109.836L230.406 109.858L233.364 110.36ZM234.708 103.448L231.768 102.849L234.708 103.448ZM236.052 97.304L238.97 97.9989L239.268 96.7475L238.567 95.669L236.052 97.304ZM232.724 92.184L231.256 89.5676L228.464 91.1342L230.209 93.819L232.724 92.184ZM238.356 89.688L239.323 92.528L239.34 92.522L239.358 92.5159L238.356 89.688ZM248.532 89.944L246.36 92.013L246.385 92.0394L246.411 92.0653L248.532 89.944ZM248.34 99.992L245.604 98.7609L244.422 101.387L246.998 102.675L248.34 99.992ZM248.98 100.312L247.638 102.995L250.153 104.252L251.57 101.825L248.98 100.312ZM272.212 90.52L270.091 92.6413L270.109 92.6593L270.127 92.677L272.212 90.52ZM273.172 103.704L270.259 102.988L270.255 103.005L270.25 103.022L273.172 103.704ZM271.316 111.64L274.234 112.335L274.237 112.325L271.316 111.64ZM271.7 125.464L273.737 127.667L275.691 125.86L274.13 123.704L271.7 125.464ZM257.748 115.992L260.675 116.651L260.677 116.643L260.678 116.635L257.748 115.992ZM259.092 110.68L256.207 109.856L259.092 110.68ZM260.436 105.624L257.521 104.915L260.436 105.624ZM260.5 99.416L257.909 100.928L257.954 101.005L258.004 101.08L260.5 99.416ZM254.804 100.184L253.14 97.6878H253.14L254.804 100.184ZM250.26 104.536L247.912 102.668L247.907 102.675L250.26 104.536ZM246.612 111.128L243.811 110.054L243.803 110.075L243.795 110.095L246.612 111.128ZM246.548 125.464L248.585 127.667L250.539 125.86L248.978 123.704L246.548 125.464ZM239.508 125.6C237.251 125.6 236.384 125.024 236.041 124.617L231.455 128.487C233.416 130.81 236.389 131.6 239.508 131.6V125.6ZM236.041 124.617C235.508 123.986 235.02 122.817 235.02 120.664H229.02C229.02 123.631 229.684 126.388 231.455 128.487L236.041 124.617ZM235.02 120.664C235.02 119.987 235.123 118.792 235.375 116.983L229.433 116.153C229.173 118.013 229.02 119.549 229.02 120.664H235.02ZM235.376 116.973C235.627 115.134 235.942 113.098 236.322 110.862L230.406 109.858C230.018 112.145 229.693 114.247 229.432 116.163L235.376 116.973ZM236.314 110.906C236.737 108.62 237.182 106.333 237.648 104.047L231.768 102.849C231.295 105.171 230.844 107.492 230.414 109.814L236.314 110.906ZM237.648 104.047C238.112 101.767 238.553 99.7517 238.97 97.9989L233.134 96.6091C232.698 98.4403 232.243 100.521 231.768 102.849L237.648 104.047ZM238.567 95.669L235.239 90.549L230.209 93.819L233.537 98.939L238.567 95.669ZM234.192 94.8004C235.773 93.9136 237.481 93.1549 239.323 92.528L237.389 86.848C235.22 87.5865 233.174 88.4917 231.256 89.5676L234.192 94.8004ZM239.358 92.5159C241.097 91.8999 242.828 91.6 244.564 91.6V85.6C242.119 85.6 239.711 86.0254 237.354 86.8601L239.358 92.5159ZM244.564 91.6C245.907 91.6 246.286 91.9355 246.36 92.013L250.704 87.875C249.072 86.1605 246.805 85.6 244.564 85.6V91.6ZM246.411 92.0653C246.574 92.2287 246.812 92.5661 246.812 93.464H252.812C252.812 91.3752 252.197 89.3659 250.653 87.8227L246.411 92.0653ZM246.812 93.464C246.812 94.3028 246.699 95.2099 246.454 96.1924L252.274 97.6476C252.626 96.2407 252.812 94.8438 252.812 93.464H246.812ZM246.454 96.1924C246.185 97.265 245.897 98.1114 245.604 98.7609L251.076 101.223C251.551 100.166 251.945 98.9643 252.274 97.6476L246.454 96.1924ZM246.998 102.675L247.638 102.995L250.322 97.6287L249.682 97.3087L246.998 102.675ZM251.57 101.825C253.936 97.7763 256.364 95.2117 258.752 93.8126L255.72 88.6353C252.135 90.735 249.059 94.229 246.39 98.7988L251.57 101.825ZM258.752 93.8126C261.331 92.3019 263.864 91.6 266.388 91.6V85.6C262.683 85.6 259.114 86.6474 255.72 88.6353L258.752 93.8126ZM266.388 91.6C268.545 91.6 269.58 92.1307 270.091 92.6413L274.333 88.3987C272.284 86.3493 269.436 85.6 266.388 85.6V91.6ZM270.127 92.677C270.589 93.1239 271.132 94.1179 271.132 96.344H277.132C277.132 93.2794 276.395 90.3908 274.297 88.363L270.127 92.677ZM271.132 96.344C271.132 98.3711 270.85 100.582 270.259 102.988L276.085 104.42C276.774 101.62 277.132 98.9249 277.132 96.344H271.132ZM270.25 103.022C269.653 105.581 269.035 108.226 268.395 110.955L274.237 112.325C274.877 109.593 275.496 106.947 276.094 104.386L270.25 103.022ZM268.398 110.945C267.706 113.851 267.356 116.75 267.356 119.64H273.356C273.356 117.239 273.646 114.805 274.234 112.335L268.398 110.945ZM267.356 119.64C267.356 122.505 267.819 125.219 269.27 127.224L274.13 123.704C273.789 123.234 273.356 122.066 273.356 119.64H267.356ZM269.663 123.261C267.803 124.981 266.151 125.6 264.66 125.6V131.6C268.033 131.6 271.074 130.128 273.737 127.667L269.663 123.261ZM264.66 125.6C262.403 125.6 261.536 125.024 261.193 124.617L256.607 128.487C258.568 130.81 261.541 131.6 264.66 131.6V125.6ZM261.193 124.617C260.66 123.986 260.172 122.817 260.172 120.664H254.172C254.172 123.631 254.836 126.388 256.607 128.487L261.193 124.617ZM260.172 120.664C260.172 119.523 260.328 118.191 260.675 116.651L254.821 115.333C254.4 117.207 254.172 118.989 254.172 120.664H260.172ZM260.678 116.635C261.048 114.949 261.481 113.239 261.977 111.504L256.207 109.856C255.679 111.705 255.216 113.536 254.818 115.349L260.678 116.635ZM261.977 111.504C262.498 109.679 262.956 107.955 263.351 106.333L257.521 104.915C257.148 106.45 256.71 108.097 256.207 109.856L261.977 111.504ZM263.351 106.333C263.77 104.609 264.012 102.994 264.012 101.528H258.012C258.012 102.366 257.87 103.482 257.521 104.915L263.351 106.333ZM264.012 101.528C264.012 100.296 263.784 98.9338 262.996 97.7519L258.004 101.08C257.949 100.997 257.951 100.965 257.968 101.035C257.986 101.108 258.012 101.264 258.012 101.528H264.012ZM263.091 97.9044C262.065 96.1442 260.272 95.648 258.836 95.648V101.648C258.942 101.648 258.826 101.667 258.603 101.564C258.34 101.443 258.079 101.22 257.909 100.928L263.091 97.9044ZM258.836 95.648C256.833 95.648 254.897 96.5161 253.14 97.6878L256.468 102.68C257.783 101.804 258.535 101.648 258.836 101.648V95.648ZM253.14 97.6878C251.281 98.9274 249.545 100.616 247.912 102.668L252.608 106.404C253.962 104.701 255.255 103.489 256.468 102.68L253.14 97.6878ZM247.907 102.675C246.239 104.785 244.883 107.258 243.811 110.054L249.413 112.202C250.304 109.878 251.38 107.956 252.613 106.397L247.907 102.675ZM243.795 110.095C242.719 113.03 242.204 116.222 242.204 119.64H248.204C248.204 116.828 248.627 114.346 249.429 112.161L243.795 110.095ZM242.204 119.64C242.204 122.505 242.667 125.219 244.118 127.224L248.978 123.704C248.637 123.234 248.204 122.066 248.204 119.64H242.204ZM244.511 123.261C242.651 124.981 240.999 125.6 239.508 125.6V131.6C242.881 131.6 245.922 130.128 248.585 127.667L244.511 123.261Z" fill="white" mask="url(#path-3-outside-2_1_3)"/>
<path d="M254.804 117.215L254.803 117.214L254.519 117.055L254.193 117.029C253.782 116.996 253.299 117.112 252.916 117.483C252.583 117.805 252.471 118.182 252.428 118.4C252.346 118.817 252.411 119.228 252.465 119.488C252.585 120.077 252.852 120.81 253.197 121.579C253.897 123.143 255.052 125.15 256.513 126.99C257.959 128.81 259.806 130.595 261.926 131.544C264.136 132.534 266.644 132.601 269.068 130.936C271.217 129.459 273.861 126.467 276.545 122.959C279.266 119.402 282.146 115.156 284.763 111.023C287.381 106.889 289.751 102.844 291.452 99.6829C292.301 98.1051 292.994 96.7278 293.47 95.6599C293.706 95.1288 293.901 94.6473 294.034 94.2417C294.1 94.0396 294.159 93.8311 294.199 93.6291C294.233 93.4535 294.278 93.1649 294.234 92.8496C294.204 92.6312 294.114 92.2909 293.839 91.9805C293.54 91.6428 293.154 91.489 292.813 91.4516C292.269 91.3922 291.838 91.6226 291.705 91.6942C291.332 91.8952 290.934 92.2278 290.575 92.5538C289.809 93.2485 288.771 94.3353 287.575 95.6529C285.166 98.3039 281.975 102.046 278.748 105.865C277.832 106.948 276.913 108.038 276.007 109.113C273.713 111.834 271.504 114.455 269.643 116.618C268.345 118.126 267.229 119.397 266.379 120.315C265.953 120.775 265.607 121.132 265.348 121.381C265.255 121.469 265.181 121.537 265.122 121.588C265.067 121.588 264.981 121.584 264.857 121.568C264.524 121.526 264.075 121.42 263.523 121.247C262.423 120.901 261.094 120.346 259.782 119.74C258.479 119.139 257.232 118.507 256.309 118.023C255.848 117.782 255.47 117.578 255.207 117.436C255.076 117.365 254.974 117.309 254.905 117.271L254.828 117.228L254.809 117.217L254.804 117.215L254.804 117.215L254.804 117.215ZM265.01 121.679C265.01 121.679 265.011 121.678 265.015 121.676C265.011 121.679 265.01 121.68 265.01 121.679ZM255.388 118.789C255.388 118.789 255.388 118.792 255.389 118.798C255.388 118.792 255.388 118.789 255.388 118.789ZM291.258 93.0318C291.258 93.0317 291.258 93.0361 291.256 93.0455C291.257 93.0367 291.258 93.032 291.258 93.0318Z" fill="#38971F" stroke="white" stroke-width="3"/>
</svg>
